<svg xmlns="http://www.w3.org/2000/svg" viewBox="0 0 201.12 114.96"><defs><style>.cls-1{fill:#fff;}</style></defs><title>Asset 1</title><g id="Layer_2" data-name="Layer 2"><g id="レイヤー_1" data-name="レイヤー 1"><path class="cls-1" d="M121.7,51.94l3.67-24.33h4.37l3.68,24.33h-3.47l-.66-5h-3.44l-.66,5Zm6.06-16.42-.1-.63h-.2l-.1.63-1,7.68h2.45Z"/><path class="cls-1" d="M138.74,51.94H135.4V33.84h3.34v1.52a2.6,2.6,0,0,0,.4-.36,6.8,6.8,0,0,1,1.46-1.19,1.69,1.69,0,0,1,.86-.23,2.22,2.22,0,0,1,1.92,1.19,5,5,0,0,1,.6,2.35V51.94h-3.34V37.61c0-.7-.4-.79-.79-.79a1.08,1.08,0,0,0-.8.43c-.1.13-.2.27-.3.43Z"/><path class="cls-1" d="M146.09,55.38s.1,0,.2,0a2.24,2.24,0,0,0,1.52-.3,3,3,0,0,0,1.09-1.66,3.4,3.4,0,0,0,.13-1L146,33.84h3.28L150.56,45l.07.93h.13l.07-.93,1.32-11.12h3.28L152.21,53.3a6.94,6.94,0,0,1-1.46,3.51,4.08,4.08,0,0,1-3.18,1.62h-.4c-.3,0-.69,0-1.09-.07Z"/><path class="cls-1" d="M161.51,29.37v4.47h2.28v3h-2.28v9a9.2,9.2,0,0,0,.13,1.89c.13.6.4,1.09.93,1.09a6.41,6.41,0,0,0,.83-.07c.13,0,.27,0,.4-.07V52c-.16,0-.33.1-.5.13a7,7,0,0,1-1.29.1A3.22,3.22,0,0,1,158.66,50a11.53,11.53,0,0,1-.5-3.84V36.85h-1.69v-3h1.69V29.37Z"/><path class="cls-1" d="M165.91,27.61h3.34V31h-3.34Zm0,24.33V33.84h3.34v18.1Z"/><path class="cls-1" d="M180.87,51.94h-3.15V37.61c0-.7-.53-.79-.89-.79a1.29,1.29,0,0,0-.89.43,2.26,2.26,0,0,0-.36.43V51.94h-3.34V33.84h3.34v1.52A2.7,2.7,0,0,0,176,35a7.31,7.31,0,0,1,1.52-1.19,1.69,1.69,0,0,1,.86-.23c1.19,0,1.89,1,2.25,2a6.25,6.25,0,0,0,.53-.5,7,7,0,0,1,1.62-1.26,1.85,1.85,0,0,1,.89-.27,2.22,2.22,0,0,1,1.92,1.19,5,5,0,0,1,.6,2.35V51.94H183V37.61c0-.7-.53-.79-.89-.79a1.29,1.29,0,0,0-.89.43,2.32,2.32,0,0,0-.36.43Z"/><path class="cls-1" d="M197.45,45.45v2.08a5,5,0,0,1-1.82,3.94,3.79,3.79,0,0,1-2.51.73,3.85,3.85,0,0,1-3.77-2.38,6.62,6.62,0,0,1-.53-2.38v-9.1a5.26,5.26,0,0,1,1.85-4,3.64,3.64,0,0,1,2.48-.73,3.87,3.87,0,0,1,3.77,2.35,6.41,6.41,0,0,1,.53,2.32V43.5h-5.53v3.94a2.57,2.57,0,0,0,.53,1.56.94.94,0,0,0,.69.27,1,1,0,0,0,1.06-.89,2.61,2.61,0,0,0,.13-.93v-2Zm-5.53-4.57h2.42V38.34a2.34,2.34,0,0,0-.46-1.59,1,1,0,0,0-.73-.26c-.63,0-.89.43-1.06.93a3.67,3.67,0,0,0-.17.93Z"/><path class="cls-1" d="M122.69,59h3.57a6.09,6.09,0,0,1,4.3,1.52c1.19,1.13,2,3,2,5.76s-.79,4.6-2,5.73a6.15,6.15,0,0,1-4.3,1.59v9.73h-3.57Zm3.57,11c1.09,0,1.79-.2,2.19-.76a4.89,4.89,0,0,0,.49-2.78,5.57,5.57,0,0,0-.49-2.91,2.4,2.4,0,0,0-2.19-.86Z"/><path class="cls-1" d="M142.55,76.83v2.08a5,5,0,0,1-1.82,3.94,3.8,3.8,0,0,1-2.52.73,3.85,3.85,0,0,1-3.77-2.38,6.61,6.61,0,0,1-.53-2.38v-9.1a5.26,5.26,0,0,1,1.85-4,3.64,3.64,0,0,1,2.48-.73A3.88,3.88,0,0,1,142,67.29a6.46,6.46,0,0,1,.53,2.32v5.26H137v3.94a2.58,2.58,0,0,0,.53,1.56,1,1,0,0,0,.7.26,1,1,0,0,0,1.06-.89,2.63,2.63,0,0,0,.13-.93v-2ZM137,72.26h2.42V69.71a2.34,2.34,0,0,0-.46-1.59,1,1,0,0,0-.73-.27c-.63,0-.89.43-1.06.93a3.65,3.65,0,0,0-.17.93Z"/><path class="cls-1" d="M151.85,68.65a3,3,0,0,0-.93-.13,2.32,2.32,0,0,0-1.69.56,2,2,0,0,0-.73,1.66V83.31h-3.35V65.21h3.35v2a2.77,2.77,0,0,1,.79-1.33,3.56,3.56,0,0,1,2.55-1Z"/><path class="cls-1" d="M158.86,69.84a5,5,0,0,0-.13-1.39,1,1,0,0,0-1-.73.91.91,0,0,0-.83.73,4,4,0,0,0-.2,1.39,2.83,2.83,0,0,0,.73,1.69,12.74,12.74,0,0,0,1.46,1.56A14.28,14.28,0,0,1,161,75.47a6,6,0,0,1,1,3.14,5.74,5.74,0,0,1-.93,3.31,3.9,3.9,0,0,1-3.34,1.66,4.19,4.19,0,0,1-3.87-2.05,7,7,0,0,1-.79-3.47h3.11a4.53,4.53,0,0,0,.26,1.72,1.38,1.38,0,0,0,1.29,1c1,0,1.16-1.12,1.16-2.18s-1.06-2.18-2.09-3.21a14.41,14.41,0,0,1-2.15-2.35,5.54,5.54,0,0,1-1-3.21,6,6,0,0,1,.83-3.24,3.79,3.79,0,0,1,3.24-1.65c2,0,3,.69,3.61,1.65a6.6,6.6,0,0,1,.66,3.24Z"/><path class="cls-1" d="M172.6,78.91a5,5,0,0,1-1.79,3.94,4.31,4.31,0,0,1-6.26-1.66,6.69,6.69,0,0,1-.53-2.38v-9.1a5.31,5.31,0,0,1,1.79-4,3.64,3.64,0,0,1,2.48-.73,3.88,3.88,0,0,1,3.77,2.35,6.46,6.46,0,0,1,.53,2.32Zm-3.15-9.2a2.17,2.17,0,0,0-.43-1.59,1,1,0,0,0-.73-.27c-.63,0-.89.43-1,.93a2.08,2.08,0,0,0-.1.93v9.1a2.19,2.19,0,0,0,.43,1.56,1,1,0,0,0,.7.26,1,1,0,0,0,1.06-.89,2,2,0,0,0,.1-.93Z"/><path class="cls-1" d="M178.62,83.31h-3.34V65.21h3.34v1.52a2.83,2.83,0,0,0,.4-.36,6.79,6.79,0,0,1,1.46-1.19,1.71,1.71,0,0,1,.86-.23,2.22,2.22,0,0,1,1.92,1.19,5,5,0,0,1,.59,2.35V83.31H180.5V69c0-.7-.4-.79-.79-.79a1.07,1.07,0,0,0-.79.43,5,5,0,0,0-.3.43Z"/><path class="cls-1" d="M191.82,69.51a4.17,4.17,0,0,0-.1-1.09.83.83,0,0,0-.83-.56c-.56,0-.79.43-.89,1a6.92,6.92,0,0,0-.07.86v.86h-3.34v-.76a5.11,5.11,0,0,1,1.29-3.41,4.23,4.23,0,0,1,3.21-1.42,4.09,4.09,0,0,1,2.84,1.16A4,4,0,0,1,195.17,69V80.17a16.73,16.73,0,0,0,.23,3.14h-3.28a2.79,2.79,0,0,1-.3-1.46h-.23a3.74,3.74,0,0,1-.93,1.09,2.9,2.9,0,0,1-1.75.63,2.15,2.15,0,0,1-1.66-.83,5.35,5.35,0,0,1-1-3.64,7,7,0,0,1,1.39-4.47,8,8,0,0,1,2.61-2.05c.83-.43,1.46-.73,1.59-1.09Zm0,5.06a4.13,4.13,0,0,0-2.31,4,3.06,3.06,0,0,0,.16,1c.13.4.36.7.76.7a1.25,1.25,0,0,0,1.39-1.09Z"/><path class="cls-1" d="M197.78,83.31V59h3.34V83.31Z"/><path class="cls-1" d="M122.26,94V90.37h10.33V94h-3.37v20.65h-3.58V94Z"/><path class="cls-1" d="M140,100a2.92,2.92,0,0,0-.92-.13,2.33,2.33,0,0,0-1.69.56,2,2,0,0,0-.73,1.66v12.58h-3.34V96.59h3.34v2a2.77,2.77,0,0,1,.79-1.32,3.57,3.57,0,0,1,2.55-1Z"/><path class="cls-1" d="M146.19,100.89a4.25,4.25,0,0,0-.1-1.09.84.84,0,0,0-.83-.56c-.56,0-.79.43-.89,1a7.35,7.35,0,0,0-.07.86v.86H141v-.76a5.1,5.1,0,0,1,1.29-3.41,4.22,4.22,0,0,1,3.21-1.42,4.09,4.09,0,0,1,2.85,1.16,4,4,0,0,1,1.23,2.94v11.12a16.57,16.57,0,0,0,.23,3.14h-3.28a2.8,2.8,0,0,1-.3-1.46H146a3.66,3.66,0,0,1-.92,1.09,2.9,2.9,0,0,1-1.76.63,2.14,2.14,0,0,1-1.65-.83,5.35,5.35,0,0,1-1-3.64A7,7,0,0,1,142,106,8,8,0,0,1,144.6,104c.83-.43,1.46-.73,1.59-1.09Zm0,5.06a4.13,4.13,0,0,0-2.32,4,3.11,3.11,0,0,0,.17,1c.13.4.36.7.76.7a1.25,1.25,0,0,0,1.39-1.09Z"/><path class="cls-1" d="M152.14,90.37h3.34v3.34h-3.34Zm0,24.33V96.59h3.34v18.1Z"/><path class="cls-1" d="M161.81,114.69h-3.34V96.59h3.34v1.52a2.67,2.67,0,0,0,.39-.36,6.88,6.88,0,0,1,1.46-1.19,1.69,1.69,0,0,1,.86-.23,2.22,2.22,0,0,1,1.92,1.19,4.94,4.94,0,0,1,.6,2.35v14.83h-3.35V100.36c0-.7-.4-.79-.79-.79a1.07,1.07,0,0,0-.79.43,4.54,4.54,0,0,0-.3.43Z"/><path class="cls-1" d="M178.32,108.2v2.09a5,5,0,0,1-1.82,3.94A3.79,3.79,0,0,1,174,115a3.85,3.85,0,0,1-3.77-2.38,6.61,6.61,0,0,1-.53-2.38v-9.1a5.26,5.26,0,0,1,1.85-4,3.65,3.65,0,0,1,2.48-.73,3.87,3.87,0,0,1,3.77,2.35,6.46,6.46,0,0,1,.53,2.32v5.26H172.8v3.94a2.53,2.53,0,0,0,.53,1.56.94.94,0,0,0,.69.27,1,1,0,0,0,1.06-.89,2.56,2.56,0,0,0,.13-.93v-2Zm-5.53-4.57h2.41v-2.55a2.34,2.34,0,0,0-.46-1.59,1,1,0,0,0-.73-.27c-.63,0-.89.43-1.06.93a3.41,3.41,0,0,0-.16.93Z"/><path class="cls-1" d="M187.13,100a2.92,2.92,0,0,0-.93-.13,2.32,2.32,0,0,0-1.69.56,2,2,0,0,0-.73,1.66v12.58h-3.34V96.59h3.34v2a2.78,2.78,0,0,1,.79-1.32,3.57,3.57,0,0,1,2.55-1Z"/><polygon class="cls-1" points="54.87 0 0 70.42 0 98.16 54.87 27.73 54.87 0"/><path class="cls-1" d="M115,55.79A27.81,27.81,0,0,0,87.21,28H54.87V45.19H87.21a10.6,10.6,0,0,1,0,21.2H76.67V83.57H87.31A27.81,27.81,0,0,0,115,55.79Z"/><polygon class="cls-1" points="54.87 66.39 24.81 66.39 24.81 83.57 54.87 83.57 54.87 114.63 72.04 114.63 72.04 83.57 72.05 83.57 72.05 66.39 58.57 66.39 54.87 66.39"/></g></g></svg>